<svg width="1200" height="460" viewBox="0 0 1200 460" xmlns="http://www.w3.org/2000/svg" font-family="Microsoft YaHei, Segoe UI, sans-serif">
    <defs>
        <marker id="arrowhead-end" viewBox="0 0 10 10" refX="8" refY="5" markerWidth="8" markerHeight="8" orient="auto">
            <path d="M 0 0 L 10 5 L 0 10 z" fill="#5D6D7E" />
        </marker>
        <filter id="shadow" x="-10%" y="-10%" width="120%" height="120%">
            <feDropShadow dx="2" dy="4" stdDeviation="4" flood-color="#000000" flood-opacity="0.15"/>
        </filter>
    </defs>

    <text x="600" y="50" style="font-size: 28px; font-weight: bold; text-anchor: middle; fill: #2C3E50;">《开源导论与数字素养》课程五大模块逻辑关系</text>

    <g transform="translate(0, 100)">

        <g transform="translate(10, 0)" style="filter: url(#shadow);">
            <rect x="0" y="0" width="200" height="250" rx="15" fill="#EBF5FB"/>
            <g transform="translate(75, 20) scale(2.08)">
                 <path fill="#3498DB" d="M12,2A7,7,0,0,0,5,9c0,2.38,1.19,4.47,3,5.74V17a1,1,0,0,0,1,1h6a1,1,0,0,0,1-1V14.74c1.81-1.27,3-3.36,3-5.74A7,7,0,0,0,12,2Zm1,17.93V19h-2v.93A8,8,0,0,0,4,20a1,1,0,0,0,1,1H19a1,1,0,0,0,1-1,8,8,0,0,0-7-1.07Z"/>
            </g>
            <text x="100" y="100" style="font-size: 18px; font-weight: bold; text-anchor: middle; fill: #2980B9;">模块一：理念与文化</text>
            <text x="100" y="130" style="font-size: 14px; font-style: italic; text-anchor: middle; fill: #34495E;">“启蒙认知”</text>
            <text style="font-size: 13px; fill: #7F8C8D;">
                <tspan x="25" dy="170">• 开源的起源与历史</tspan>
                <tspan x="25" dy="1.4em">• 核心理念 (开放/协作)</tspan>
                <tspan x="25" dy="1.4em">• 主流许可证解读</tspan>
            </text>
        </g>

        <g transform="translate(250, 0)" style="filter: url(#shadow);">
            <rect x="0" y="0" width="200" height="250" rx="15" fill="#E8F8F5"/>
            <g transform="translate(75, 20) scale(2.08)">
                <path fill="#1ABC9C" d="M22.7 19l-9.1-9.1c.9-2.3.4-5-1.5-6.9-2-2-5-2.4-7.4-1.3L9 6 6 9 1.6 4.7C.4 7.1.9 10.1 2.9 12.1c1.9 1.9 4.6 2.4 6.9 1.5l9.1 9.1c.4.4 1 .4 1.4 0l2.3-2.3c.5-.4.5-1.1.1-1.4z"/>
            </g>
            <text x="100" y="100" style="font-size: 18px; font-weight: bold; text-anchor: middle; fill: #16A085;">模块二：工具与平台</text>
            <text x="100" y="130" style="font-size: 14px; font-style: italic; text-anchor: middle; fill: #34495E;">“技能准备”</text>
            <text style="font-size: 13px; fill: #7F8C8D;">
                <tspan x="25" dy="170">• Git 版本控制入门</tspan>
                <tspan x="25" dy="1.4em">• 平台协作 (PR/Issue)</tspan>
                <tspan x="25" dy="1.4em">• AI模型社区体验</tspan>
            </text>
        </g>

        <g transform="translate(490, 0)" style="filter: url(#shadow);">
            <rect x="0" y="0" width="200" height="250" rx="15" fill="#FEF9E7"/>
            <g transform="translate(75, 20) scale(2.08)">
                 <path fill="#F1C40F" d="M12 2C6.48 2 2 6.48 2 12s4.48 10 10 10 10-4.48 10-10S17.52 2 12 2zm-1 17.93c-3.95-.49-7-3.85-7-7.93 0-.62.08-1.21.21-1.79L9 15v1c0 1.1.9 2 2 2v1.93zm6.9-2.54c-.26-.81-1-1.39-1.9-1.39h-1v-3c0-.55-.45-1-1-1h-2v-2c0-.55-.45-1-1-1h-2V7h1c.55 0 1-.45 1-1V5h2c.55 0 1-.45 1-1h2c.55 0 1-.45 1-1h.5c1.38 0 2.5 1.12 2.5 2.5 0 .87-.45 1.64-1.12 2.08.97.49 1.62 1.49 1.62 2.67 0 1.54-1.17 2.8-2.65 2.96z"/>
            </g>
            <text x="100" y="100" style="font-size: 18px; font-weight: bold; text-anchor: middle; fill: #F39C12;">模块三：项目生态图谱</text>
            <text x="100" y="130" style="font-size: 14px; font-style: italic; text-anchor: middle; fill: #34495E;">“视野拓展”</text>
            <text style="font-size: 13px; fill: #7F8C8D;">
                <tspan x="25" dy="170">• 全球及中国开源生态</tspan>
                <tspan x="25" dy="1.4em">• AI 与云原生项目</tspan>
                <tspan x="25" dy="1.4em">• 开源治理与商业模式</tspan>
            </text>
        </g>

        <g transform="translate(730, 0)" style="filter: url(#shadow);">
            <rect x="0" y="0" width="200" height="250" rx="15" fill="#F4ECF7"/>
            <g transform="translate(75, 20) scale(2.08)">
                <path fill="#9B59B6" d="M14 17.25V14h-4v3.25C8.35 16.66 7.69 15.65 7.5 14.5H9.5V11H7.5C7.69 9.35 8.35 8.34 10 7.75V10h4V7.75c1.65.59 2.31 1.6 2.5 3.25H14.5v3.5H16.5c-.19 1.15-.85 2.16-2.5 2.75M12 2C17.52 2 22 6.48 22 12s-4.48 10-10 10S2 17.52 2 12 6.48 2 12 2Z"/>
            </g>
            <text x="100" y="100" style="font-size: 18px; font-weight: bold; text-anchor: middle; fill: #8E44AD;">模块四：贡献与实践</text>
            <text x="100" y="130" style="font-size: 14px; font-style: italic; text-anchor: middle; fill: #34495E;">“能力提升”</text>
            <text style="font-size: 13px; fill: #7F8C8D;">
                <tspan x="25" dy="170">• 寻找贡献机会 (Issue)</tspan>
                <tspan x="25" dy="1.4em">• “微贡献”工作坊</tspan>
                <tspan x="25" dy="1.4em">• 开源与职业发展</tspan>
            </text>
        </g>

        <g transform="translate(970, 0)" style="filter: url(#shadow);">
            <rect x="0" y="0" width="200" height="250" rx="15" fill="#FADBD8" />
            <g transform="translate(75, 20) scale(2.08)">
                <path fill="#E74C3C" d="M12 9a3 3 0 0 0-3 3 3 3 0 0 0 3 3 3 3 0 0 0 3-3 3 3 0 0 0-3-3m0 8a5 5 0 0 1-5-5 5 5 0 0 1 5-5 5 5 0 0 1 5 5 5 5 0 0 1-5 5m0-12.5C7 4.5 2.73 7.61 1 12c1.73 4.39 6 7.5 11 7.5s9.27-3.11 11-7.5c-1.73-4.39-6-7.5-11-7.5"/>
            </g>
            <text x="100" y="100" style="font-size: 18px; font-weight: bold; text-anchor: middle; fill: #C0392B;">模块五：价值与未来</text>
            <text x="100" y="130" style="font-size: 14px; font-style: italic; text-anchor: middle; fill: #34495E;">“思辨展望”</text>
            <text style="font-size: 13px; fill: #7F8C8D;">
                <tspan x="25" dy="170">• 开源的社会价值</tspan>
                <tspan x="25" dy="1.4em">• 全球协作与未来趋势</tspan>
                <tspan x="25" dy="1.4em">• 个人开源之旅规划</tspan>
            </text>
        </g>

        <g transform="translate(0, 300)">
            <path d="M 20 0 H 1170" style="stroke: #5D6D7E; stroke-width: 2.5; marker-end: url(#arrowhead-end);" />
            <text x="230" y="-10" style="font-size: 13px; font-weight: 500; fill: #5D6D7E; text-anchor: middle;">认知基础</text>
            <text x="470" y="-10" style="font-size: 13px; font-weight: 500; fill: #5D6D7E; text-anchor: middle;">技能应用</text>
            <text x="710" y="-10" style="font-size: 13px; font-weight: 500; fill: #5D6D7E; text-anchor: middle;">知识实践</text>
            <text x="950" y="-10" style="font-size: 13px; font-weight: 500; fill: #5D6D7E; text-anchor: middle;">价值升华</text>
        </g>
    </g>

    <text x="600" y="440" style="font-size: 12px; fill: #7f8c8d; text-anchor: middle;">本作品采用 CC-BY-SA 4.0 国际许可协议进行许可，© 2025 Gitconomy Research社区</text>
</svg>
