
<svg xmlns="http://www.w3.org/2000/svg" viewBox="0 0 1200 1020" width="1200" height="1020" style="font-family: Arial, sans-serif;">
  <!-- 背景 -->
  <rect width="1200" height="1020" fill="#f8f9fa" rx="8" ry="8" />

  <!-- 标题 -->
  <text x="600" y="40" text-anchor="middle" font-size="28" font-weight="bold" fill="#333"> 生成式思维与创造力课程场景B——高强度训练营教学框架</text>

  <!-- 图例 -->
  <rect x="50" y="70" width="15" height="15" fill="#7b1fa2" rx="2" ry="2" />
  <text x="75" y="83" font-size="14" fill="#333">核心主题</text>

  <rect x="180" y="70" width="15" height="15" fill="#e1bee7" rx="2" ry="2" opacity="0.6" />
  <text x="205" y="83" font-size="14" fill="#333">实践活动</text>

  <line x1="310" y1="77" x2="370" y2="77" stroke="#ff4d4f" stroke-width="3" />
  <text x="380" y="83" font-size="14" fill="#333">学习深度曲线</text>

  <circle cx="500" cy="77" r="8" fill="#52c41a" />
  <text x="520" y="83" font-size="14" fill="#333">关键里程碑</text>

  <!-- 时间线背景 -->
  <rect x="100" y="110" width="1000" height="60" fill="#f0f0f0" rx="5" ry="5" />

  <!-- 时间段标记 -->
  <line x1="100" y1="140" x2="1100" y2="140" stroke="#d9d9d9" stroke-width="2" />

  <line x1="300" y1="120" x2="300" y2="160" stroke="#d9d9d9" stroke-width="2" />
  <line x1="500" y1="120" x2="500" y2="160" stroke="#d9d9d9" stroke-width="2" />
  <line x1="700" y1="120" x2="700" y2="160" stroke="#d9d9d9" stroke-width="2" />
  <line x1="900" y1="120" x2="900" y2="160" stroke="#d9d9d9" stroke-width="2" />

  <text x="200" y="150" text-anchor="middle" font-size="16" font-weight="bold" fill="#333">第一天</text>
  <text x="400" y="150" text-anchor="middle" font-size="16" font-weight="bold" fill="#333">第二天</text>
  <text x="600" y="150" text-anchor="middle" font-size="16" font-weight="bold" fill="#333">第三天</text>
  <text x="800" y="150" text-anchor="middle" font-size="16" font-weight="bold" fill="#333">第四天</text>
  <text x="1000" y="150" text-anchor="middle" font-size="16" font-weight="bold" fill="#333">第五天</text>

  <!-- 学习阶段 -->
  <rect x="100" y="180" width="200" height="40" fill="#e6f7ff" rx="5" ry="5" stroke="#00796b" stroke-width="2" />
  <text x="200" y="205" text-anchor="middle" font-size="14" font-weight="bold" fill="#00796b">思维破冰与AI奠基</text>

  <rect x="300" y="180" width="200" height="40" fill="#fff7e6" rx="5" ry="5" stroke="#1976d2" stroke-width="2" />
  <text x="400" y="205" text-anchor="middle" font-size="14" font-weight="bold" fill="#1976d2">洞察用户与重构机会</text>

  <rect x="500" y="180" width="200" height="40" fill="#fcf4ff" rx="5" ry="5" stroke="#f57c00" stroke-width="2" />
  <text x="600" y="205" text-anchor="middle" font-size="14" font-weight="bold" fill="#f57c00">人机共创与技术内化</text>

  <rect x="700" y="180" width="200" height="40" fill="#f6ffed" rx="5" ry="5" stroke="#c2185b" stroke-width="2" />
  <text x="800" y="205" text-anchor="middle" font-size="14" font-weight="bold" fill="#c2185b">原型冲刺与敏捷开发</text>

  <rect x="900" y="180" width="200" height="40" fill="#fff2e8" rx="5" ry="5" stroke="#3f51b5" stroke-width="2" />
  <text x="1000" y="205" text-anchor="middle" font-size="14" font-weight="bold" fill="#3f51b5">项目交付与综合展示</text>

  <!-- 核心主题区域 -->
  <text x="20" y="270" font-size="16" font-weight="bold" fill="#333">核心主题</text>

  <!-- 第一天主题 -->
  <rect x="120" y="240" width="160" height="120" rx="5" ry="5" fill="#7b1fa2" opacity="0.8" />
  <text x="200" y="280" text-anchor="middle" font-size="14" fill="white" font-weight="bold">"认知操作系统"</text>
  <text x="200" y="305" text-anchor="middle" font-size="12" fill="white">MECE原则与系统思维训练</text>
  <text x="200" y="325" text-anchor="middle" font-size="12" fill="white">AI产品解构</text>
  <text x="200" y="345" text-anchor="middle" font-size="12" fill="white">项目构想启动</text>

  <!-- 第二天主题 -->
  <rect x="320" y="240" width="160" height="120" rx="5" ry="5" fill="#7b1fa2" opacity="0.8" />
  <text x="400" y="280" text-anchor="middle" font-size="14" fill="white" font-weight="bold">JTBD框架应用</text>
  <text x="400" y="305" text-anchor="middle" font-size="12" fill="white">HMW工作坊</text>
  <text x="400" y="325" text-anchor="middle" font-size="12" fill="white">问题转化为创新机会</text>
  <text x="400" y="345" text-anchor="middle" font-size="12" fill="white">自动化提示链概念</text>

  <!-- 第三天主题 -->
  <rect x="520" y="240" width="160" height="120" rx="5" ry="5" fill="#7b1fa2" opacity="0.8" />
  <text x="600" y="280" text-anchor="middle" font-size="14" fill="white" font-weight="bold">高级提示工程技术</text>
  <text x="600" y="305" text-anchor="middle" font-size="12" fill="white">自注意力机制原理</text>
  <text x="600" y="325" text-anchor="middle" font-size="12" fill="white">LoRA微调基础</text>
  <text x="600" y="345" text-anchor="middle" font-size="12" fill="white">批判性思维应用</text>

  <!-- 第四天主题 -->
  <rect x="720" y="240" width="160" height="120" rx="5" ry="5" fill="#7b1fa2" opacity="0.8" />
  <text x="800" y="280" text-anchor="middle" font-size="14" fill="white" font-weight="bold">敏捷学习与创造节奏</text>
  <text x="800" y="305" text-anchor="middle" font-size="12" fill="white">Web应用快速开发</text>
  <text x="800" y="325" text-anchor="middle" font-size="12" fill="white">数据分析入门</text>
  <text x="800" y="345" text-anchor="middle" font-size="12" fill="white">个人项目冲刺</text>

  <!-- 第五天主题 -->
  <rect x="920" y="240" width="160" height="120" rx="5" ry="5" fill="#7b1fa2" opacity="0.8" />
  <text x="1000" y="280" text-anchor="middle" font-size="14" fill="white" font-weight="bold">项目完善与展示</text>
  <text x="1000" y="305" text-anchor="middle" font-size="12" fill="white">交叉质询与反馈</text>
  <text x="1000" y="325" text-anchor="middle" font-size="12" fill="white">整体复盘</text>
  <text x="1000" y="345" text-anchor="middle" font-size="12" fill="white">学习路径规划</text>

  <!-- 道法术器框架路径 -->
  <text x="120" y="400" font-size="13" fill="#00796b" font-weight="bold" text-anchor="middle">道</text>
  <text x="400" y="400" font-size="13" fill="#1976d2" font-weight="bold" text-anchor="middle">法</text>
  <text x="680" y="400" font-size="13" fill="#f57c00" font-weight="bold" text-anchor="middle">术</text>
  <text x="1000" y="400" font-size="13" fill="#c2185b" font-weight="bold" text-anchor="middle">器</text>

  <!-- 从道到法的箭头 -->
  <line x1="150" y1="400" x2="350" y2="400" stroke="#00796b" stroke-width="2" stroke-dasharray="5,3" />
  <polygon points="340,395 350,400 340,405" fill="#00796b" />

  <!-- 从法到术的箭头 -->
  <line x1="450" y1="400" x2="630" y2="400" stroke="#1976d2" stroke-width="2" stroke-dasharray="5,3" />
  <polygon points="620,395 630,400 620,405" fill="#1976d2" />

  <!-- 从术到器的箭头 -->
  <line x1="730" y1="400" x2="950" y2="400" stroke="#f57c00" stroke-width="2" stroke-dasharray="5,3" />
  <polygon points="940,395 950,400 940,405" fill="#f57c00" />

  <!-- 实践活动区域 -->
  <text x="20" y="440" font-size="16" font-weight="bold" fill="#333">实践活动</text>

  <!-- 第一天实践活动 -->
  <rect x="120" y="420" width="160" height="120" rx="5" ry="5" fill="#e1bee7" opacity="0.7" />
  <text x="200" y="445" text-anchor="middle" font-size="13" fill="#333" font-weight="bold">Code Lab 1</text>
  <text x="200" y="470" text-anchor="middle" font-size="11" fill="#333">• Python与开发环境搭建</text>
  <text x="200" y="490" text-anchor="middle" font-size="11" fill="#333">• AI产品解构练习</text>
  <text x="200" y="510" text-anchor="middle" font-size="11" fill="#333">• MECE分析实战</text>
  <text x="200" y="530" text-anchor="middle" font-size="11" fill="#333">• 个人项目初步构想</text>

  <!-- 第二天实践活动 -->
  <rect x="320" y="420" width="160" height="120" rx="5" ry="5" fill="#e1bee7" opacity="0.7" />
  <text x="400" y="445" text-anchor="middle" font-size="13" fill="#333" font-weight="bold">Code Lab 2</text>
  <text x="400" y="470" text-anchor="middle" font-size="11" fill="#333">• 用户需求映射</text>
  <text x="400" y="490" text-anchor="middle" font-size="11" fill="#333">• HMW问题框架设计</text>
  <text x="400" y="510" text-anchor="middle" font-size="11" fill="#333">• API调用基础</text>
  <text x="400" y="530" text-anchor="middle" font-size="11" fill="#333">• 自动化提示链实现</text>

  <!-- 第三天实践活动 -->
  <rect x="520" y="420" width="160" height="120" rx="5" ry="5" fill="#e1bee7" opacity="0.7" />
  <text x="600" y="445" text-anchor="middle" font-size="13" fill="#333" font-weight="bold">Code Lab 3</text>
  <text x="600" y="470" text-anchor="middle" font-size="11" fill="#333">• CoT与Self-consistency</text>
  <text x="600" y="490" text-anchor="middle" font-size="11" fill="#333">• 简化版自注意力机制实现</text>
  <text x="600" y="510" text-anchor="middle" font-size="11" fill="#333">• LoRA微调实践</text>
  <text x="600" y="530" text-anchor="middle" font-size="11" fill="#333">• 项目技术方案选型</text>

  <!-- 第四天实践活动 -->
  <rect x="720" y="420" width="160" height="120" rx="5" ry="5" fill="#e1bee7" opacity="0.7" />
  <text x="800" y="445" text-anchor="middle" font-size="13" fill="#333" font-weight="bold">Code Lab 4</text>
  <text x="800" y="470" text-anchor="middle" font-size="11" fill="#333">• Streamlit/Gradio实战</text>
  <text x="800" y="490" text-anchor="middle" font-size="11" fill="#333">• 数据可视化基础</text>
  <text x="800" y="510" text-anchor="middle" font-size="11" fill="#333">• Web应用原型开发</text>
  <text x="800" y="530" text-anchor="middle" font-size="11" fill="#333">• 项目冲刺与阶段测试</text>

  <!-- 第五天实践活动 -->
  <rect x="920" y="420" width="160" height="120" rx="5" ry="5" fill="#e1bee7" opacity="0.7" />
  <text x="1000" y="445" text-anchor="middle" font-size="13" fill="#333" font-weight="bold">项目展示与复盘</text>
  <text x="1000" y="470" text-anchor="middle" font-size="11" fill="#333">• 最终项目展示</text>
  <text x="1000" y="490" text-anchor="middle" font-size="11" fill="#333">• 交叉评审与质询</text>
  <text x="1000" y="510" text-anchor="middle" font-size="11" fill="#333">• 证据组合包整理</text>
  <text x="1000" y="530" text-anchor="middle" font-size="11" fill="#333">• 未来发展规划</text>

  <!-- 学习深度曲线 -->
  <text x="20" y="580" font-size="16" font-weight="bold" fill="#333">学习深度曲线</text>

  <!-- 学习深度曲线背景和网格 -->
  <rect x="100" y="570" width="1000" height="220" fill="white" rx="5" ry="5" stroke="#d9d9d9" stroke-width="1" />

  <!-- 水平参考线 -->
  <line x1="100" y1="680" x2="1100" y2="680" stroke="#d9d9d9" stroke-width="1" stroke-dasharray="5,3" />
  <text x="80" y="685" text-anchor="end" font-size="12" fill="#666">基础理解</text>

  <line x1="100" y1="630" x2="1100" y2="630" stroke="#d9d9d9" stroke-width="1" stroke-dasharray="5,3" />
  <text x="80" y="635" text-anchor="end" font-size="12" fill="#666">深度应用</text>

  <line x1="100" y1="730" x2="1100" y2="730" stroke="#d9d9d9" stroke-width="1" stroke-dasharray="5,3" />
  <text x="80" y="735" text-anchor="end" font-size="12" fill="#666">初步认知</text>

  <!-- 垂直参考线 - 保持位置 -->
  <line x1="300" y1="570" x2="300" y2="790" stroke="#d9d9d9" stroke-width="1" stroke-dasharray="5,3" />
  <line x1="500" y1="570" x2="500" y2="790" stroke="#d9d9d9" stroke-width="1" stroke-dasharray="5,3" />
  <line x1="700" y1="570" x2="700" y2="790" stroke="#d9d9d9" stroke-width="1" stroke-dasharray="5,3" />
  <line x1="900" y1="570" x2="900" y2="790" stroke="#d9d9d9" stroke-width="1" stroke-dasharray="5,3" />

  <!-- 学习深度曲线路径  -->
  <path d="M 120,730
           C 160,710 180,700 200,690
           S 250,670 300,680
           S 350,660 400,650
           S 450,640 500,635
           S 550,630 600,620
           S 650,610 700,620
           S 750,610 800,600
           S 850,595 900,590
           S 950,585 1000,580
           S 1050,580 1080,580"
        fill="none" stroke="#ff4d4f" stroke-width="3" />

  <!-- 学习阶段标注 -->
  <text x="200" y="730" text-anchor="middle" font-size="11" fill="#ff4d4f">思维模式破冰</text>
  <text x="400" y="635" text-anchor="middle" font-size="11" fill="#ff4d4f">洞察转化能力</text>
  <text x="600" y="605" text-anchor="middle" font-size="11" fill="#ff4d4f">技术内化</text>
  <text x="800" y="585" text-anchor="middle" font-size="11" fill="#ff4d4f">应用创造</text>
  <text x="1000" y="570" text-anchor="middle" font-size="11" fill="#ff4d4f">综合实践</text>

  <!-- 关键里程碑  -->
  <text x="20" y="820" font-size="16" font-weight="bold" fill="#333">关键里程碑</text>

  <!-- 关键成果点 -->
  <circle cx="200" cy="820" r="10" fill="#52c41a" />
  <text x="200" y="850" text-anchor="middle" font-size="12" fill="#333">认知框架初步建立</text>

  <circle cx="400" cy="820" r="10" fill="#52c41a" />
  <text x="400" y="850" text-anchor="middle" font-size="12" fill="#333">个人项目清晰定义</text>

  <circle cx="600" cy="820" r="10" fill="#52c41a" />
  <text x="600" y="850" text-anchor="middle" font-size="12" fill="#333">AI技术原理掌握</text>

  <circle cx="800" cy="820" r="10" fill="#52c41a" />
  <text x="800" y="850" text-anchor="middle" font-size="12" fill="#333">可演示AI应用原型</text>

  <circle cx="1000" cy="820" r="10" fill="#52c41a" />
  <text x="1000" y="850" text-anchor="middle" font-size="12" fill="#333">完整项目与学习证据</text>

  <text x="20" y="890" font-size="16" font-weight="bold" fill="#333">三大产出</text>

  <!-- 最终产出内容框 -->
  <rect x="100" y="870" width="1000" height="80" fill="#f0f0ff" rx="5" ry="5" stroke="#3f51b5" stroke-width="2" />

  <!-- 最终产出三大项 -->
  <rect x="120" y="880" width="300" height="60" rx="5" ry="5" fill="#3f51b5" opacity="0.2" stroke="#3f51b5" stroke-width="1" />
  <text x="270" y="910" text-anchor="middle" font-size="14" fill="#333" font-weight="bold">个人AI项目</text>
  <text x="270" y="930" text-anchor="middle" font-size="12" fill="#333">从概念到可用的Web应用原型</text>

  <rect x="450" y="880" width="300" height="60" rx="5" ry="5" fill="#3f51b5" opacity="0.2" stroke="#3f51b5" stroke-width="1" />
  <text x="600" y="910" text-anchor="middle" font-size="14" fill="#333" font-weight="bold">证据组合包</text>
  <text x="600" y="930" text-anchor="middle" font-size="12" fill="#333">学习过程与成果的系统化记录</text>

  <rect x="780" y="880" width="300" height="60" rx="5" ry="5" fill="#3f51b5" opacity="0.2" stroke="#3f51b5" stroke-width="1" />
  <text x="930" y="910" text-anchor="middle" font-size="14" fill="#333" font-weight="bold">认知操作系统1.0</text>
  <text x="930" y="930" text-anchor="middle" font-size="12" fill="#333">个人化的思维与学习框架</text>

  <!-- 许可 -->
  <text x="50%" y="1000" text-anchor="middle" font-size="14" fill="#9ca3af">
    本作品采用 CC-BY-NC-SA 4.0 国际许可协议进行许可，© 2025 Gitconomy Research社区
  </text>

</svg>
