
<svg xmlns="http://www.w3.org/2000/svg" viewBox="0 0 800 640">
  <!-- 背景 -->
  <rect width="800" height="640" fill="#f8f9fa" rx="10" ry="10"/>

  <!-- 标题 -->
  <text x="400" y="50" font-family="Arial, sans-serif" font-size="28" font-weight="bold" text-anchor="middle" fill="#333">从"市集"到"道路与桥梁"的视角转变</text>
  <text x="400" y="80" font-family="Arial, sans-serif" font-size="16" text-anchor="middle" fill="#666">开源生态系统二十年间的成熟与演变</text>

  <!-- 上部时间线 -->
  <line x1="150" y1="120" x2="650" y2="120" stroke="#ccc" stroke-width="4"/>
  <circle cx="200" cy="120" r="8" fill="#e17055"/>
  <circle cx="600" cy="120" r="8" fill="#0984e3"/>
  <text x="200" y="105" font-family="Arial, sans-serif" font-size="14" font-weight="bold" text-anchor="middle" fill="#e17055">1997年</text>
  <text x="600" y="105" font-family="Arial, sans-serif" font-size="14" font-weight="bold" text-anchor="middle" fill="#0984e3">2020年代</text>

  <!-- 左侧：市集模式 -->
  <g transform="translate(200, 200)">
    <!-- 市集图标 -->
    <circle cx="0" cy="0" r="70" fill="#fff" stroke="#e17055" stroke-width="3"/>

    <!-- 市集内部元素 -->
    <rect x="-40" y="-30" width="20" height="20" fill="#e17055" fill-opacity="0.2" stroke="#e17055" stroke-width="1"/>
    <rect x="-10" y="-40" width="25" height="25" fill="#e17055" fill-opacity="0.3" stroke="#e17055" stroke-width="1"/>
    <rect x="20" y="-25" width="15" height="15" fill="#e17055" fill-opacity="0.4" stroke="#e17055" stroke-width="1"/>
    <rect x="-30" y="5" width="15" height="15" fill="#e17055" fill-opacity="0.5" stroke="#e17055" stroke-width="1"/>
    <rect x="-5" y="15" width="20" height="20" fill="#e17055" fill-opacity="0.3" stroke="#e17055" stroke-width="1"/>
    <rect x="25" y="10" width="15" height="15" fill="#e17055" fill-opacity="0.4" stroke="#e17055" stroke-width="1"/>

    <!-- 连线表示交互 -->
    <line x1="-30" y1="-20" x2="-10" y2="-25" stroke="#e17055" stroke-width="1"/>
    <line x1="15" y1="-30" x2="20" y2="-25" stroke="#e17055" stroke-width="1"/>
    <line x1="-30" y1="5" x2="-5" y2="15" stroke="#e17055" stroke-width="1"/>
    <line x1="15" y1="20" x2="25" y2="15" stroke="#e17055" stroke-width="1"/>

    <!-- 标题 -->
    <text x="0" y="95" font-family="Arial, sans-serif" font-size="22" font-weight="bold" text-anchor="middle" fill="#e17055">市集模式</text>
    <text x="0" y="115" font-family="Arial, sans-serif" font-size="14" font-style="italic" text-anchor="middle" fill="#666">The Bazaar Model</text>
  </g>

  <!-- 右侧：道路与桥梁 -->
  <g transform="translate(600, 200)">
    <!-- 基础设施图标 -->
    <circle cx="0" cy="0" r="70" fill="#fff" stroke="#0984e3" stroke-width="3"/>

    <!-- 桥梁 -->
    <path d="M-40,-20 C-30,-40 30,-40 40,-20" fill="none" stroke="#0984e3" stroke-width="3"/>
    <line x1="-40" y1="-20" x2="-40" y2="20" stroke="#0984e3" stroke-width="3"/>
    <line x1="40" y1="-20" x2="40" y2="20" stroke="#0984e3" stroke-width="3"/>

    <!-- 道路 -->
    <rect x="-50" y="20" width="100" height="10" fill="#0984e3" fill-opacity="0.3"/>
    <line x1="-45" y1="25" x2="45" y2="25" stroke="#fff" stroke-width="1" stroke-dasharray="5,3"/>

    <!-- 标题 -->
    <text x="0" y="95" font-family="Arial, sans-serif" font-size="22" font-weight="bold" text-anchor="middle" fill="#0984e3">道路与桥梁</text>
    <text x="0" y="115" font-family="Arial, sans-serif" font-size="14" font-style="italic" text-anchor="middle" fill="#666">Roads and Bridges</text>
  </g>

  <!-- 中央箭头 -->
  <g transform="translate(400, 200)">
    <path d="M-120,0 L120,0" stroke="#666" stroke-width="2" stroke-dasharray="6,3"/>
    <polygon points="110,-10 130,0 110,10" fill="#666"/>
    <text x="0" y="-15" font-family="Arial, sans-serif" font-size="14" font-weight="bold" text-anchor="middle" fill="#666">视角转变</text>
  </g>

  <!-- 比较表格 -->
  <g transform="translate(400, 350)">
    <!-- 表格框架 -->
    <rect x="-350" y="0" width="700" height="200" fill="#fff" stroke="#ddd" stroke-width="1" rx="5" ry="5"/>

    <!-- 表头 -->
    <rect x="-350" y="0" width="160" height="40" fill="#f5f5f5" stroke="#ddd" stroke-width="1"/>
    <rect x="-190" y="0" width="270" height="40" fill="#e17055" fill-opacity="0.1" stroke="#ddd" stroke-width="1"/>
    <rect x="80" y="0" width="270" height="40" fill="#0984e3" fill-opacity="0.1" stroke="#ddd" stroke-width="1"/>

    <text x="-270" y="25" font-family="Arial, sans-serif" font-size="16" font-weight="bold" text-anchor="middle" fill="#333">对比维度</text>
    <text x="-55" y="25" font-family="Arial, sans-serif" font-size="16" font-weight="bold" text-anchor="middle" fill="#e17055">市集模式</text>
    <text x="215" y="25" font-family="Arial, sans-serif" font-size="16" font-weight="bold" text-anchor="middle" fill="#0984e3">道路与桥梁</text>

    <!-- 行1：核心焦点 -->
    <rect x="-350" y="40" width="160" height="40" fill="#f5f5f5" stroke="#ddd" stroke-width="1"/>
    <rect x="-190" y="40" width="270" height="40" fill="#fff" stroke="#ddd" stroke-width="1"/>
    <rect x="80" y="40" width="270" height="40" fill="#fff" stroke="#ddd" stroke-width="1"/>

    <text x="-270" y="65" font-family="Arial, sans-serif" font-size="14" font-weight="bold" text-anchor="middle" fill="#333">核心焦点</text>
    <text x="-55" y="65" font-family="Arial, sans-serif" font-size="14" text-anchor="middle" fill="#666">软件的生产与调试</text>
    <text x="215" y="65" font-family="Arial, sans-serif" font-size="14" text-anchor="middle" fill="#666">软件的消费与维护</text>

    <!-- 行2：时代背景 -->
    <rect x="-350" y="80" width="160" height="40" fill="#f5f5f5" stroke="#ddd" stroke-width="1"/>
    <rect x="-190" y="80" width="270" height="40" fill="#fff" stroke="#ddd" stroke-width="1"/>
    <rect x="80" y="80" width="270" height="40" fill="#fff" stroke="#ddd" stroke-width="1"/>

    <text x="-270" y="105" font-family="Arial, sans-serif" font-size="14" font-weight="bold" text-anchor="middle" fill="#333">时代背景</text>
    <text x="-55" y="105" font-family="Arial, sans-serif" font-size="14" text-anchor="middle" fill="#666">个人电脑与早期互联网时代</text>
    <text x="215" y="105" font-family="Arial, sans-serif" font-size="14" text-anchor="middle" fill="#666">云计算、SaaS和平台经济时代</text>

    <!-- 行3：核心观点 -->
    <rect x="-350" y="120" width="160" height="40" fill="#f5f5f5" stroke="#ddd" stroke-width="1"/>
    <rect x="-190" y="120" width="270" height="40" fill="#fff" stroke="#ddd" stroke-width="1"/>
    <rect x="80" y="120" width="270" height="40" fill="#fff" stroke="#ddd" stroke-width="1"/>

    <text x="-270" y="145" font-family="Arial, sans-serif" font-size="14" font-weight="bold" text-anchor="middle" fill="#333">核心观点</text>
    <text x="-55" y="139" font-family="Arial, sans-serif" font-size="12" text-anchor="middle" fill="#666">"人多力量大"，更多的参与者</text>
    <text x="-55" y="155" font-family="Arial, sans-serif" font-size="12" text-anchor="middle" fill="#666">能更快发现并修复错误</text>
    <text x="215" y="139" font-family="Arial, sans-serif" font-size="12" text-anchor="middle" fill="#666">"依赖是无形的"，广泛的依赖并未转化</text>
    <text x="215" y="155" font-family="Arial, sans-serif" font-size="12" text-anchor="middle" fill="#666">为对等的支持，导致系统性风险</text>

    <!-- 行4：提出的问题 -->
    <rect x="-350" y="160" width="160" height="40" fill="#f5f5f5" stroke="#ddd" stroke-width="1"/>
    <rect x="-190" y="160" width="270" height="40" fill="#fff" stroke="#ddd" stroke-width="1"/>
    <rect x="80" y="160" width="270" height="40" fill="#fff" stroke="#ddd" stroke-width="1"/>

    <text x="-270" y="185" font-family="Arial, sans-serif" font-size="14" font-weight="bold" text-anchor="middle" fill="#333">提出的问题</text>
    <text x="-55" y="179" font-family="Arial, sans-serif" font-size="12" text-anchor="middle" fill="#666">如何组织大规模的、</text>
    <text x="-55" y="195" font-family="Arial, sans-serif" font-size="12" text-anchor="middle" fill="#666">分布式的开发？</text>
    <text x="215" y="179" font-family="Arial, sans-serif" font-size="12" text-anchor="middle" fill="#666">如何为关键的、被广泛依赖的</text>
    <text x="215" y="195" font-family="Arial, sans-serif" font-size="12" text-anchor="middle" fill="#666">开源项目提供可持续的支持？</text>
  </g>

  <!-- 底部总结 -->
  <g transform="translate(400, 570)">
    <rect x="-350" y="-20" width="700" height="40" rx="5" ry="5" fill="#f5f5f5" stroke="#ddd" stroke-width="1"/>
    <text x="0" y="5" font-family="Arial, sans-serif" font-size="14" font-weight="bold" text-anchor="middle" fill="#333">
      从业余爱好者的生产狂欢到数字社会基础设施的可持续性危机
    </text>
  </g>

  <!-- 许可声明 -->
  <text x="400" y="620" font-family="Arial, sans-serif" font-size="12" text-anchor="middle" fill="#666">本作品采用 CC-BY-SA 4.0 国际许可协议进行许可，© 2025 Gitconomy Research社区</text>
</svg>
