<svg width="1200" height="450" viewBox="0 0 1200 450" xmlns="http://www.w3.org/2000/svg" style="background-color: white; font-family: 'Noto Sans', sans-serif;">
    <defs>
        <style>
            /* --- 色彩规范 --- */
            .label-box { fill: #FEF9C3; stroke: #FACC15; stroke-width: 2px; }
            .content-box { fill: #F0FDF4; stroke: #34D399; stroke-width: 2px; }

            /* --- 字体规范 --- */
            .main-title-text { font-size: 22px; font-weight: 800; fill: #111827; text-anchor: middle; }
            .description-text { font-size: 18px; font-weight: normal; fill: #374151; text-anchor: middle; }
            .principle-label-text { font-size: 12px; font-weight: bold; fill: #111827; text-anchor: middle; }
            .title-text { font-size: 16px; font-weight: bold; fill: #111827; text-anchor: middle; }
            .body-text { font-size: 12px; font-weight: normal; fill: #374151; text-anchor: middle; letter-spacing: 0.02em; }
            .license-text { font-size: 12px; font-weight: normal; fill: #64748B; text-anchor: middle; }
        </style>
    </defs>

    <text x="600" y="50" class="main-title-text">Gitconomy开放课程开发核心设计原则</text>

    <g id="principles-container" transform="translate(0, 100)">
        <g id="principle-1" transform="translate(40, 0)">
            <rect x="0" y="0" width="200" height="40" rx="8" ry="8" class="label-box" />
            <text x="100" y="25" class="principle-label-text">原则一</text>
            <rect x="0" y="60" width="200" height="150" rx="8" ry="8" class="content-box" />
            <text x="100" y="95" class="title-text">模块化与可组合性</text>
            <text x="100" y="125" class="body-text">
                <tspan x="100" dy="0">内容解构为独立、</tspan>
                <tspan x="100" dy="1.4em">可重用的模块，</tspan>
                <tspan x="100" dy="1.4em">允许灵活组合与复用。</tspan>
            </text>
        </g>

        <g id="principle-2" transform="translate(270, 0)">
            <rect x="0" y="0" width="200" height="40" rx="8" ry="8" class="label-box" />
            <text x="100" y="25" class="principle-label-text">原则二</text>
            <rect x="0" y="60" width="200" height="150" rx="8" ry="8" class="content-box" />
            <text x="100" y="95" class="title-text">内置协作钩子</text>
            <text x="100" y="125" class="body-text">
                <tspan x="100" dy="0">在内容中预设协作入口，</tspan>
                <tspan x="100" dy="1.4em">将学习过程转化为</tspan>
                <tspan x="100" dy="1.4em">社区贡献的起点。</tspan>
            </text>
        </g>

        <g id="principle-3" transform="translate(500, 0)">
            <rect x="0" y="0" width="200" height="40" rx="8" ry="8" class="label-box" />
            <text x="100" y="25" class="principle-label-text">原则三</text>
            <rect x="0" y="60" width="200" height="150" rx="8" ry="8" class="content-box" />
            <text x="100" y="95" class="title-text">实践驱动</text>
            <text x="100" y="125" class="body-text">
                <tspan x="100" dy="0">每个核心理论</tspan>
                <tspan x="100" dy="1.4em">必须紧密衔接一个</tspan>
                <tspan x="100" dy="1.4em">可操作的动手任务。</tspan>
            </text>
        </g>

        <g id="principle-4" transform="translate(730, 0)">
            <rect x="0" y="0" width="200" height="40" rx="8" ry="8" class="label-box" />
            <text x="100" y="25" class="principle-label-text">原则四</text>
            <rect x="0" y="60" width="200" height="150" rx="8" ry="8" class="content-box" />
            <text x="100" y="95" class="title-text">社区维护的资源池</text>
            <text x="100" y="125" class="body-text">
                <tspan x="100" dy="0">建立由社区共同定义、</tspan>
                <tspan x="100" dy="1.4em">共同维护的</tspan>
                <tspan x="100" dy="1.4em">动态开放资源库。</tspan>
            </text>
        </g>

        <g id="principle-5" transform="translate(960, 0)">
            <rect x="0" y="0" width="200" height="40" rx="8" ry="8" class="label-box" />
            <text x="100" y="25" class="principle-label-text">原则五</text>
            <rect x="0" y="60" width="200" height="150" rx="8" ry="8" class="content-box" />
            <text x="100" y="95" class="title-text">透明化版本控制</text>
            <text x="100" y="125" class="body-text">
                <tspan x="100" dy="0">内容的演进历史</tspan>
                <tspan x="100" dy="1.4em">本身即为学习案例，</tspan>
                <tspan x="100" dy="1.4em">所有变更均可追溯。</tspan>
            </text>
        </g>
    </g>

    <text x="50%" y="370" class="description-text">五项基本原则相互关联，共同构成Gitconomy开放课程的核心价值体系。</text>

    <text x="50%" y="420" class="license-text">本作品采用CC-BY-SA 4.0国际许可协议进行许可，© 2025 Gitconomy Research社区</text>

</svg>
